<?xml version="1.0" standalone="no"?>
<!DOCTYPE svg PUBLIC "-//W3C//DTD SVG 20010904//EN"
 "http://www.w3.org/TR/2001/REC-SVG-20010904/DTD/svg10.dtd">
<svg version="1.0" xmlns="http://www.w3.org/2000/svg"
 width="1200.000000pt" height="600.000000pt" viewBox="0 0 1200.000000 600.000000"
 preserveAspectRatio="xMidYMid meet">

<g transform="translate(0.000000,600.000000) scale(0.100000,-0.100000)"
fill="#000000" stroke="none">
<path d="M1435 4169 c-281 -28 -530 -230 -632 -513 -24 -68 -73 -325 -73 -384
0 -54 3 -74 36 -252 21 -116 61 -213 128 -314 174 -261 547 -373 876 -262 101
35 173 80 255 161 104 105 181 250 187 357 l3 43 -38 3 c-60 5 -81 -16 -112
-108 -64 -191 -197 -312 -396 -360 -103 -24 -250 -26 -334 -5 -204 54 -356
208 -424 430 -23 73 -45 253 -35 280 5 13 88 15 685 15 l679 0 0 68 c0 326
-119 580 -340 727 -82 54 -207 103 -288 111 -31 3 -66 7 -77 8 -11 2 -56 -1
-100 -5z m213 -134 c153 -36 306 -161 375 -306 41 -84 73 -195 82 -286 l7 -63
-616 0 -616 0 0 35 c0 50 28 178 52 239 112 287 420 451 716 381z"/>
<path d="M8910 4169 c-144 -12 -323 -78 -403 -149 -77 -67 -118 -168 -118
-293 0 -115 29 -197 95 -262 45 -44 69 -57 196 -107 80 -31 264 -91 410 -133
298 -86 332 -99 378 -145 61 -61 77 -104 77 -210 0 -87 -3 -100 -30 -148 -34
-63 -67 -93 -144 -132 -112 -56 -194 -75 -331 -74 -89 0 -143 5 -189 18 -213
59 -358 204 -393 394 l-12 62 -58 0 -58 0 0 -32 c0 -54 28 -154 62 -223 102
-211 331 -325 649 -325 322 0 554 126 619 337 59 192 -19 409 -179 496 -28 15
-142 51 -263 83 -450 117 -558 152 -611 195 -91 75 -119 219 -64 331 42 86
124 138 282 178 89 23 251 27 337 9 79 -17 171 -62 222 -109 53 -49 102 -141
111 -208 12 -96 9 -92 72 -92 l56 0 -5 91 c-5 78 -11 100 -42 164 -40 82 -117
160 -195 199 -128 65 -312 98 -471 85z"/>
<path d="M4596 4154 c-183 -40 -314 -140 -431 -330 l-30 -49 -5 175 -5 175
-62 3 -63 3 0 -1156 0 -1156 68 3 67 3 5 448 5 447 49 -66 c50 -68 135 -138
219 -181 119 -60 343 -87 492 -60 308 56 489 239 583 586 23 85 26 115 26 271
1 149 -3 188 -22 263 -61 245 -170 422 -320 520 -154 102 -383 142 -576 101z
m348 -125 c211 -71 347 -233 418 -497 29 -111 36 -318 13 -437 -20 -110 -72
-248 -120 -320 -116 -174 -326 -276 -533 -260 -175 13 -310 73 -408 178 -106
114 -153 245 -175 485 -14 154 -9 216 33 397 61 271 237 439 498 476 80 11
204 1 274 -22z"/>
<path d="M7205 4156 c-238 -55 -414 -202 -511 -426 -20 -45 -47 -125 -62 -178
-23 -86 -26 -117 -26 -272 -1 -134 3 -195 17 -260 40 -182 124 -341 235 -440
71 -64 213 -135 312 -157 101 -22 303 -21 390 1 36 9 103 35 150 57 69 34 101
58 170 128 94 95 147 185 177 302 21 83 15 99 -35 99 -49 0 -63 -15 -100 -107
-80 -195 -197 -309 -377 -366 -55 -17 -93 -21 -180 -21 -190 1 -310 48 -430
169 -76 75 -139 181 -169 285 -20 67 -37 222 -29 261 l6 29 683 0 684 0 0 23
c0 45 -41 296 -60 371 -60 236 -248 426 -486 491 -84 22 -284 28 -359 11z
m310 -120 c249 -66 422 -296 448 -598 l6 -58 -615 0 -614 0 0 43 c0 63 25 166
59 248 76 181 235 319 418 363 75 18 234 20 298 2z"/>
<path d="M10405 4156 c-277 -64 -410 -184 -431 -388 -12 -117 40 -270 111
-324 71 -54 252 -120 600 -220 291 -84 326 -98 373 -145 60 -59 77 -103 77
-199 0 -106 -26 -170 -94 -233 -54 -50 -169 -110 -256 -132 -75 -19 -212 -19
-294 0 -205 49 -377 212 -446 423 l-17 52 -54 0 -54 0 0 -42 c1 -183 128 -378
300 -461 131 -63 223 -82 395 -82 174 0 265 20 401 85 267 129 332 457 132
675 -74 81 -150 114 -428 186 -129 33 -288 74 -354 91 -136 36 -183 65 -231
142 -23 39 -30 63 -33 116 -5 90 17 155 73 218 104 116 368 167 588 114 108
-27 156 -51 212 -107 58 -58 93 -129 107 -220 l12 -75 58 0 58 0 0 53 c0 124
-51 237 -146 326 -64 60 -148 103 -270 137 -80 23 -309 28 -389 10z"/>
<path d="M2371 4131 c-10 -6 60 -103 283 -394 163 -213 299 -393 302 -400 3
-9 -126 -190 -318 -448 -178 -238 -322 -435 -321 -438 2 -3 25 -7 53 -9 93 -6
100 2 402 415 l273 373 28 -34 c16 -19 139 -186 273 -372 272 -377 282 -387
380 -387 30 0 57 3 60 6 3 3 -136 194 -310 426 -173 231 -318 431 -322 444 -3
14 0 36 8 49 7 13 101 139 209 279 108 140 235 306 282 369 l86 115 -39 9
c-40 9 -104 -8 -140 -37 -9 -6 -125 -159 -260 -339 -230 -308 -245 -327 -261
-310 -9 9 -118 154 -242 322 -123 168 -234 313 -245 323 -41 38 -147 60 -181
38z"/>
<path d="M5810 3285 l0 -845 60 0 59 0 4 543 c3 576 1 553 52 671 48 113 158
229 274 290 85 44 150 63 250 72 l81 7 0 55 0 55 -87 -6 c-112 -8 -187 -28
-289 -76 -89 -43 -200 -138 -254 -219 l-30 -45 0 171 0 172 -60 0 -60 0 0
-845z"/>
</g>
</svg>
