<?xml version="1.0" standalone="no"?>
<!DOCTYPE svg PUBLIC "-//W3C//DTD SVG 20010904//EN"
 "http://www.w3.org/TR/2001/REC-SVG-20010904/DTD/svg10.dtd">
<svg version="1.0" xmlns="http://www.w3.org/2000/svg"
 width="474.000000pt" height="474.000000pt" viewBox="0 0 474.000000 474.000000"
 preserveAspectRatio="xMidYMid meet">

<g transform="translate(0.000000,474.000000) scale(0.100000,-0.100000)"
fill="#000000" stroke="none">
<path d="M646 2755 c-108 -143 -141 -231 -134 -355 6 -98 52 -200 126 -281 41
-45 52 -64 52 -90 0 -19 5 -41 10 -49 9 -13 11 -13 20 0 5 8 10 30 10 49 0 26
11 45 53 91 92 98 131 202 125 325 -4 69 -10 95 -42 161 -35 75 -139 224 -156
224 -4 0 -33 -34 -64 -75z m74 -669 c-24 -24 -30 21 -24 194 3 96 8 182 12
190 3 8 10 -72 14 -179 6 -137 6 -197 -2 -205z"/>
<path d="M1120 2526 c0 -7 9 -16 20 -19 19 -5 20 -14 20 -190 0 -193 -3 -217
-26 -217 -8 0 -14 -6 -14 -12 0 -9 16 -12 55 -10 30 2 55 8 55 13 0 5 -7 9
-15 9 -13 0 -15 27 -15 183 l0 182 83 -197 c45 -109 87 -198 93 -198 6 0 46
84 89 188 43 103 80 189 82 191 1 2 3 -75 3 -172 0 -151 -2 -177 -15 -177 -8
0 -15 -4 -15 -10 0 -6 28 -10 65 -10 37 0 65 4 65 10 0 6 -6 10 -14 10 -23 0
-26 24 -26 217 0 176 1 185 20 190 11 3 20 12 20 20 0 11 -13 13 -56 11 l-57
-3 -71 -177 c-39 -98 -74 -178 -77 -178 -4 0 -39 81 -80 180 l-73 180 -58 0
c-43 0 -58 -4 -58 -14z"/>
<path d="M3300 2530 c0 -5 9 -14 20 -20 19 -10 20 -21 20 -206 0 -187 -1 -196
-20 -201 -11 -3 -20 -10 -20 -15 0 -6 49 -8 124 -6 120 3 126 4 168 33 79 56
111 149 88 253 -16 73 -83 143 -152 160 -57 14 -228 16 -228 2z m252 -54 c59
-39 89 -168 59 -259 -23 -68 -99 -114 -177 -105 l-29 3 -3 185 c-2 154 0 187
12 196 20 14 104 3 138 -20z"/>
<path d="M3740 2525 c0 -8 6 -15 14 -15 20 0 21 -16 18 -219 -3 -172 -4 -183
-22 -188 -52 -14 -8 -23 110 -23 110 0 137 3 169 20 37 18 71 68 71 104 0 38
-30 86 -64 102 l-35 17 30 28 c23 21 29 36 29 68 0 90 -55 121 -215 121 -87 0
-105 -3 -105 -15z m235 -50 c14 -13 25 -35 25 -49 0 -64 -41 -96 -121 -96
l-39 0 0 85 0 85 55 0 c46 0 60 -4 80 -25z m8 -187 c34 -17 46 -39 47 -80 0
-25 -8 -46 -23 -64 -20 -23 -34 -28 -86 -32 -37 -3 -67 0 -73 6 -8 8 -14 125
-9 175 1 12 120 8 144 -5z"/>
<path d="M1801 2393 c-81 -40 -113 -164 -62 -246 68 -110 240 -99 296 19 22
47 17 134 -12 172 -51 69 -145 93 -222 55z m129 -28 c40 -20 60 -63 60 -125 0
-56 -20 -104 -49 -120 -36 -19 -105 -12 -129 13 -101 108 -6 296 118 232z"/>
<path d="M2149 2393 c-13 -9 -26 -18 -29 -20 -3 -3 3 -9 13 -14 15 -9 17 -27
17 -134 0 -104 -2 -125 -15 -125 -8 0 -15 -4 -15 -10 0 -6 27 -10 60 -10 33 0
60 4 60 10 0 6 -7 10 -16 10 -14 0 -15 15 -12 110 3 101 5 111 28 135 14 13
39 27 57 31 26 5 37 1 57 -19 25 -25 26 -31 26 -135 0 -102 -1 -111 -22 -125
-22 -15 -20 -16 45 -16 38 -1 67 3 67 9 0 6 -6 10 -14 10 -22 0 -27 27 -22
120 2 46 -1 98 -6 116 -13 47 -51 74 -105 74 -42 0 -103 -25 -103 -42 0 -4 -4
-8 -10 -8 -5 0 -10 6 -10 14 0 27 -25 37 -51 19z"/>
<path d="M2603 2390 c-69 -42 -87 -120 -39 -177 l24 -29 -28 -38 c-29 -38 -30
-66 -3 -66 11 0 10 -6 -6 -26 -55 -70 8 -154 116 -154 122 0 207 78 173 159
-16 40 -52 54 -157 59 -85 4 -91 6 -81 22 9 14 28 19 79 22 59 3 73 8 98 32
17 16 35 44 41 62 11 31 7 46 -28 118 -2 4 10 5 27 1 23 -5 31 -3 31 8 0 10
-21 16 -82 20 -120 10 -130 9 -165 -13z m117 -25 c40 -21 56 -72 36 -119 -37
-90 -158 -61 -158 38 0 77 56 115 122 81z m33 -294 c47 -18 48 -87 2 -117 -32
-21 -107 -21 -139 0 -33 21 -36 76 -6 106 22 22 98 28 143 11z"/>
<path d="M2989 2388 c-51 -29 -79 -83 -79 -150 0 -96 60 -159 157 -166 48 -3
64 0 92 20 92 62 112 173 49 259 -45 60 -150 78 -219 37z m158 -39 c52 -49 53
-160 3 -211 -38 -38 -109 -40 -145 -4 -65 65 -48 203 30 237 31 13 85 2 112
-22z"/>
<path d="M4211 2143 c7 -12 15 -20 18 -17 3 2 -3 12 -13 22 -17 16 -18 16 -5
-5z"/>
<path d="M4190 2120 c-8 -5 -12 -12 -9 -15 4 -3 12 1 19 10 14 17 11 19 -10 5z"/>
</g>
</svg>
