<?xml version="1.0" standalone="no"?>
<!DOCTYPE svg PUBLIC "-//W3C//DTD SVG 20010904//EN"
 "http://www.w3.org/TR/2001/REC-SVG-20010904/DTD/svg10.dtd">
<svg version="1.0" xmlns="http://www.w3.org/2000/svg"
 width="800.000000pt" height="800.000000pt" viewBox="0 0 800.000000 800.000000"
 preserveAspectRatio="xMidYMid meet">

<g transform="translate(0.000000,800.000000) scale(0.100000,-0.100000)"
fill="#000000" stroke="none">
<path d="M5063 5323 c-10 -4 -13 -103 -13 -449 0 -397 -2 -445 -16 -451 -9 -3
-54 14 -105 41 -86 44 -91 45 -123 32 -60 -25 -561 -318 -578 -338 -16 -18
-18 -51 -18 -362 0 -258 3 -346 13 -359 21 -28 584 -347 612 -347 28 0 591
320 613 348 9 12 12 196 12 838 0 768 -1 823 -17 843 -15 17 -326 197 -358
206 -5 2 -16 1 -22 -2z m-116 -1349 l94 -55 -3 -122 -3 -121 -95 -57 c-52 -32
-100 -58 -106 -58 -5 -1 -56 26 -112 59 l-102 61 0 118 0 119 103 61 c56 33
108 58 116 55 7 -2 56 -29 108 -60z"/>
<path d="M1456 4515 c-141 -74 -579 -332 -587 -346 -5 -11 -8 -193 -7 -465 3
-384 5 -448 18 -456 11 -7 59 15 185 87 94 54 178 104 188 113 15 13 17 38 17
236 1 163 4 227 14 245 15 26 171 121 200 121 24 0 164 -77 194 -107 21 -22
22 -27 22 -243 0 -123 4 -229 10 -239 14 -27 363 -223 384 -215 15 6 16 46 14
467 l-3 461 -40 27 c-51 34 -566 329 -574 329 -3 0 -19 -7 -35 -15z"/>
<path d="M6194 4349 c-153 -89 -287 -168 -296 -177 -17 -14 -18 -44 -18 -362
0 -317 2 -350 18 -368 22 -25 578 -342 599 -342 19 0 341 172 375 200 18 14
21 23 13 35 -5 8 -138 89 -295 178 l-285 163 -3 126 -3 126 97 56 c53 31 103
56 110 56 18 0 186 -98 202 -118 7 -10 12 -49 12 -109 0 -90 1 -93 23 -93 12
0 101 49 197 108 l175 107 3 110 c2 78 -1 115 -10 127 -25 31 -573 338 -604
338 -20 0 -120 -52 -310 -161z"/>
<path d="M6437 3914 l-58 -36 3 -66 3 -66 57 -34 c56 -33 57 -33 90 -16 84 43
89 50 86 122 l-3 66 -55 32 c-30 18 -57 33 -60 33 -3 0 -31 -16 -63 -35z"/>
</g>
</svg>
