<?xml version="1.0" standalone="no"?>
<!DOCTYPE svg PUBLIC "-//W3C//DTD SVG 20010904//EN"
 "http://www.w3.org/TR/2001/REC-SVG-20010904/DTD/svg10.dtd">
<svg version="1.0" xmlns="http://www.w3.org/2000/svg"
 width="474.000000pt" height="474.000000pt" viewBox="0 0 474.000000 474.000000"
 preserveAspectRatio="xMidYMid meet">

<g transform="translate(0.000000,474.000000) scale(0.100000,-0.100000)"
fill="#000000" stroke="none">
<path d="M2269 4277 c-20 -8 -103 -52 -185 -99 -151 -87 -629 -363 -1098 -634
-142 -82 -276 -166 -298 -187 -22 -22 -52 -64 -66 -95 l-27 -57 0 -830 c0
-805 1 -832 20 -884 33 -89 94 -140 326 -272 297 -170 371 -199 499 -198 200
1 321 58 398 186 71 120 72 137 72 1066 0 753 -1 805 -17 819 -14 12 -44 16
-120 17 -161 3 -144 106 -143 -844 1 -519 -3 -818 -9 -843 -15 -54 -74 -107
-138 -122 -83 -19 -162 9 -393 141 -107 62 -203 119 -212 127 -17 14 -18 65
-18 803 l0 789 38 23 c34 22 131 78 612 355 91 52 309 178 485 280 176 101
334 191 351 199 31 15 32 15 235 -102 112 -65 263 -152 334 -193 72 -41 204
-117 295 -170 252 -145 465 -268 572 -330 61 -35 99 -63 102 -76 10 -35 7
-1533 -3 -1558 -6 -16 -62 -54 -177 -119 -93 -53 -281 -162 -419 -241 -776
-449 -897 -518 -913 -518 -9 0 -105 52 -212 115 -107 63 -200 115 -207 115 -8
0 -48 -17 -91 -39 -42 -21 -96 -44 -120 -51 -54 -17 -68 -33 -47 -53 8 -9 82
-55 163 -103 81 -48 202 -120 270 -160 67 -39 145 -78 173 -84 71 -17 145 -7
216 28 89 46 1462 840 1506 872 51 37 91 93 111 155 15 45 16 136 14 880 l-3
830 -28 58 c-17 34 -47 72 -73 94 -24 20 -189 121 -366 223 -178 103 -501 290
-718 415 -506 294 -477 279 -575 283 -48 1 -94 -3 -116 -11z"/>
<path d="M2605 3090 c-111 -14 -144 -23 -228 -60 -89 -40 -105 -51 -166 -120
-64 -70 -69 -80 -89 -162 -27 -107 -27 -115 -2 -225 21 -89 21 -90 93 -159 65
-64 81 -74 172 -107 83 -30 147 -43 375 -77 151 -22 312 -52 356 -65 130 -40
166 -99 134 -215 -33 -121 -252 -179 -565 -151 -210 19 -296 74 -344 223 l-27
83 -127 3 c-112 2 -128 1 -134 -14 -3 -10 1 -63 10 -118 15 -95 19 -104 75
-185 58 -84 61 -87 176 -149 l117 -64 192 -25 192 -25 164 17 c156 16 168 19
275 65 104 46 116 54 183 127 l72 78 25 110 26 110 -19 91 c-23 111 -25 115
-98 185 -100 97 -240 138 -698 208 -184 29 -268 52 -312 88 -35 28 -37 33 -37
85 0 78 30 120 114 160 l65 31 190 1 c174 1 196 -1 257 -22 90 -31 147 -89
183 -183 15 -38 35 -74 45 -79 24 -13 191 -13 224 0 33 12 33 28 -4 163 -28
103 -32 111 -97 186 -66 77 -72 81 -183 129 -109 47 -123 50 -270 66 -86 9
-162 15 -170 15 -8 -1 -73 -9 -145 -19z"/>
</g>
</svg>
