<?xml version="1.0" standalone="no"?>
<!DOCTYPE svg PUBLIC "-//W3C//DTD SVG 20010904//EN"
 "http://www.w3.org/TR/2001/REC-SVG-20010904/DTD/svg10.dtd">
<svg version="1.0" xmlns="http://www.w3.org/2000/svg"
 width="2400.000000pt" height="2400.000000pt" viewBox="0 0 2400.000000 2400.000000"
 preserveAspectRatio="xMidYMid meet">

<g transform="translate(0.000000,2400.000000) scale(0.100000,-0.100000)"
fill="#000000" stroke="none">
<path d="M16365 21019 c-112 -12 -122 -17 -35 -17 41 0 93 5 115 13 46 15 31
16 -80 4z"/>
<path d="M16715 21010 c17 -4 46 -8 65 -8 l35 0 -40 9 c-22 4 -51 8 -65 7 -23
0 -22 -1 5 -8z"/>
<path d="M7348 21003 c29 -2 74 -2 100 0 26 2 2 3 -53 3 -55 0 -76 -1 -47 -3z"/>
<path d="M7100 20979 c-52 -11 -128 -34 -169 -50 -77 -31 -185 -92 -197 -111
-10 -16 38 2 62 23 11 11 29 19 40 19 11 0 35 11 54 25 19 14 44 25 56 25 12
0 32 8 45 18 15 12 49 21 93 25 38 4 78 13 90 21 12 7 31 16 41 19 57 14 -29
4 -115 -14z"/>
<path d="M16085 20974 c-245 -53 -597 -174 -815 -279 -53 -26 -54 -27 -17 -21
20 2 49 14 64 25 14 12 38 21 53 21 15 0 35 9 45 20 10 11 28 20 40 20 12 0
42 11 66 23 24 13 62 27 84 31 22 4 48 15 57 23 9 8 49 19 88 23 43 5 78 14
89 25 11 9 44 19 77 22 33 3 73 13 89 23 17 10 59 20 95 22 39 3 81 14 105 27
34 18 36 21 15 20 -14 0 -74 -11 -135 -25z"/>
<path d="M7677 20979 c16 -16 80 -29 138 -28 l50 1 -70 14 c-133 25 -130 25
-118 13z"/>
<path d="M7900 20930 c22 -12 54 -19 85 -19 l50 1 -70 19 c-89 24 -110 23 -65
-1z"/>
<path d="M8144 20875 c11 -8 29 -15 40 -15 25 0 19 4 -24 18 -32 11 -33 10
-16 -3z"/>
<path d="M8290 20825 c14 -8 34 -14 45 -14 13 0 8 5 -15 14 -46 18 -61 18 -30
0z"/>
<path d="M6640 20735 c-41 -41 -72 -75 -69 -75 5 0 117 109 140 136 29 35 -3
8 -71 -61z"/>
<path d="M8400 20785 c7 -8 24 -15 39 -15 25 1 25 1 -8 15 -42 19 -47 19 -31
0z"/>
<path d="M8550 20730 c8 -5 20 -10 25 -10 6 0 3 5 -5 10 -8 5 -19 10 -25 10
-5 0 -3 -5 5 -10z"/>
<path d="M15160 20644 c-39 -21 -41 -24 -15 -19 17 4 39 15 50 26 25 25 20 24
-35 -7z"/>
<path d="M18491 20640 c14 -31 19 -36 19 -24 0 6 -7 19 -16 30 -14 18 -14 18
-3 -6z"/>
<path d="M6537 20618 c-38 -50 -112 -168 -136 -217 -27 -51 -10 -46 20 7 34
62 63 108 96 156 37 53 56 86 49 86 -3 0 -16 -15 -29 -32z"/>
<path d="M15060 20595 c-38 -21 -40 -24 -15 -19 17 4 39 15 50 25 25 24 20 23
-35 -6z"/>
<path d="M14849 20484 c-664 -369 -1289 -832 -1974 -1465 -228 -210 -211 -186
-167 -235 l37 -41 0 63 0 63 61 58 c184 176 295 276 343 312 29 22 103 86 163
143 61 57 133 119 162 138 46 33 93 72 166 140 15 14 46 36 69 50 23 14 61 42
84 63 23 21 67 55 97 75 30 20 78 54 107 77 28 22 71 51 94 65 23 14 50 33 59
43 10 10 31 26 48 35 17 9 49 27 71 40 23 12 41 26 41 31 0 5 13 12 30 16 16
4 32 11 35 16 8 12 110 79 122 79 5 0 20 11 33 25 13 14 31 25 39 25 9 0 45
20 81 45 36 25 69 45 74 45 6 0 20 10 32 21 27 25 51 40 114 69 24 12 47 25
50 29 3 5 22 14 42 20 36 12 55 27 46 37 -3 2 -74 -35 -159 -82z"/>
<path d="M18536 20530 c22 -56 24 -59 24 -28 0 14 -9 36 -20 49 l-20 24 16
-45z"/>
<path d="M18570 20440 c0 -3 9 -27 20 -55 l21 -50 -5 39 c-3 22 -12 47 -21 55
-8 8 -15 13 -15 11z"/>
<path d="M6331 20249 c-46 -109 -91 -235 -91 -253 0 -6 7 -3 16 6 9 9 20 40
25 68 4 29 15 60 23 69 9 10 18 33 22 52 3 19 17 57 31 86 14 29 23 58 21 64
-2 7 -24 -35 -47 -92z"/>
<path d="M9387 20309 c7 -7 15 -10 18 -7 3 3 -2 9 -12 12 -14 6 -15 5 -6 -5z"/>
<path d="M18620 20290 c0 -3 9 -32 20 -65 20 -57 20 -58 15 -16 -3 24 -12 53
-20 64 -8 12 -15 19 -15 17z"/>
<path d="M9537 20219 c7 -7 15 -10 18 -7 3 3 -2 9 -12 12 -14 6 -15 5 -6 -5z"/>
<path d="M18671 20125 c-1 -5 6 -32 13 -60 l14 -50 1 41 c1 22 -6 49 -14 60
-8 10 -14 15 -14 9z"/>
<path d="M11455 20000 c21 -24 26 -25 19 -6 -3 8 -13 17 -22 21 -13 5 -13 2 3
-15z"/>
<path d="M18701 19994 c0 -11 3 -14 6 -6 3 7 2 16 -1 19 -3 4 -6 -2 -5 -13z"/>
<path d="M6211 19903 c-22 -82 -21 -99 2 -61 12 19 32 138 22 138 -1 0 -12
-35 -24 -77z"/>
<path d="M11520 19947 c14 -16 34 -33 45 -39 21 -11 20 -10 -35 37 l-35 30 25
-28z"/>
<path d="M18716 19934 c4 -20 12 -59 19 -88 l13 -51 1 53 c1 48 -20 122 -34
122 -3 0 -3 -16 1 -36z"/>
<path d="M11615 19860 c10 -11 20 -20 23 -20 3 0 -3 9 -13 20 -10 11 -20 20
-23 20 -3 0 3 -9 13 -20z"/>
<path d="M10092 19844 c10 -10 20 -16 22 -13 3 3 -5 11 -17 18 -21 13 -21 12
-5 -5z"/>
<path d="M11663 19824 c4 -7 39 -40 79 -75 39 -35 69 -59 65 -53 -4 7 -39 40
-79 75 -39 35 -69 59 -65 53z"/>
<path d="M6166 19718 c-31 -151 -31 -149 -5 -103 15 27 24 63 27 113 2 39 3
72 0 72 -3 0 -12 -37 -22 -82z"/>
<path d="M18751 19780 c0 -8 11 -76 24 -150 l25 -135 -4 105 c-3 80 -9 116
-25 150 -11 25 -20 38 -20 30z"/>
<path d="M10270 19716 c0 -2 8 -10 18 -17 15 -13 16 -12 3 4 -13 16 -21 21
-21 13z"/>
<path d="M10400 19616 c0 -2 8 -10 18 -17 15 -13 16 -12 3 4 -13 16 -21 21
-21 13z"/>
<path d="M11952 19555 c36 -37 39 -39 55 -22 16 16 16 17 -12 17 -16 0 -40 10
-54 22 -14 12 -9 5 11 -17z"/>
<path d="M10450 19576 c0 -2 8 -10 18 -17 15 -13 16 -12 3 4 -13 16 -21 21
-21 13z"/>
<path d="M6117 19441 c-10 -68 -16 -125 -14 -128 3 -2 12 15 21 39 12 31 16
67 14 128 l-3 85 -18 -124z"/>
<path d="M10515 19520 c10 -11 20 -20 23 -20 3 0 -3 9 -13 20 -10 11 -20 20
-23 20 -3 0 3 -9 13 -20z"/>
<path d="M18816 19335 c3 -27 9 -84 14 -125 l7 -75 1 95 c1 63 -4 105 -13 125
-14 29 -14 29 -9 -20z"/>
<path d="M6092 19260 c0 -14 2 -19 5 -12 2 6 2 18 0 25 -3 6 -5 1 -5 -13z"/>
<path d="M6073 19073 c-10 -150 -8 -979 4 -1098 5 -60 8 130 8 563 0 358 0
652 -1 652 -1 0 -6 -53 -11 -117z"/>
<path d="M11256 18860 c5 -14 9 -40 9 -57 l0 -33 25 25 c28 28 23 46 -19 74
-23 15 -23 15 -15 -9z"/>
<path d="M12920 18555 c0 -5 125 -150 168 -195 3 -3 0 4 -6 15 -12 23 -162
189 -162 180z"/>
<path d="M11874 18007 c-345 -382 -715 -821 -998 -1187 l-58 -75 92 95 c50 52
99 109 107 125 17 34 67 96 120 152 20 21 47 56 60 77 31 49 68 92 163 196 8
9 32 38 53 65 20 28 45 60 55 73 9 13 37 45 62 71 84 91 168 186 230 261 35
41 87 99 116 127 60 61 138 97 169 81 11 -6 5 5 -14 26 -19 20 -37 36 -40 36
-4 0 -56 -55 -117 -123z"/>
<path d="M13490 17880 c6 -11 13 -20 16 -20 2 0 0 9 -6 20 -6 11 -13 20 -16
20 -2 0 0 -9 6 -20z"/>
<path d="M18822 17635 c-7 -88 -15 -180 -18 -205 -3 -36 0 -29 16 30 16 60 19
101 17 205 l-2 130 -13 -160z"/>
<path d="M13660 17666 c0 -2 8 -10 18 -17 15 -13 16 -12 3 4 -13 16 -21 21
-21 13z"/>
<path d="M6111 17620 c0 -14 7 -65 14 -115 l14 -90 -3 95 c-1 52 -7 104 -14
115 -11 19 -11 19 -11 -5z"/>
<path d="M13736 17573 c52 -65 59 -72 44 -43 -18 34 -63 90 -73 90 -5 0 9 -21
29 -47z"/>
<path d="M13810 17480 c6 -11 13 -20 16 -20 2 0 0 9 -6 20 -6 11 -13 20 -16
20 -2 0 0 -9 6 -20z"/>
<path d="M13850 17426 c0 -2 7 -9 15 -16 13 -11 14 -10 9 4 -5 14 -24 23 -24
12z"/>
<path d="M13880 17386 c0 -2 8 -10 18 -17 15 -13 16 -12 3 4 -13 16 -21 21
-21 13z"/>
<path d="M18782 17255 c-7 -60 -15 -128 -18 -150 -5 -37 -4 -38 10 -22 18 23
29 116 24 212 l-3 70 -13 -110z"/>
<path d="M6161 17240 c0 -14 7 -59 14 -100 l14 -75 -3 82 c-2 44 -9 89 -15
100 -9 16 -10 16 -10 -7z"/>
<path d="M12810 17176 c0 -2 8 -10 18 -17 15 -13 16 -12 3 4 -13 16 -21 21
-21 13z"/>
<path d="M6194 17020 c3 -14 12 -70 22 -125 9 -55 18 -102 19 -103 2 -2 1 40
-2 95 -4 74 -10 105 -25 128 -19 28 -19 29 -14 5z"/>
<path d="M12946 17010 c40 -67 57 -89 71 -94 9 -4 -1 15 -22 41 -46 57 -61 74
-49 53z"/>
<path d="M18731 16893 c-6 -49 -14 -99 -17 -113 -5 -23 -4 -23 12 5 16 27 35
195 22 195 -2 0 -10 -39 -17 -87z"/>
<path d="M13045 16880 c10 -11 20 -20 23 -20 3 0 -3 9 -13 20 -10 11 -20 20
-23 20 -3 0 3 -9 13 -20z"/>
<path d="M14270 16866 c0 -2 8 -10 18 -17 15 -13 16 -12 3 4 -13 16 -21 21
-21 13z"/>
<path d="M14300 16826 c0 -2 8 -10 18 -17 15 -13 16 -12 3 4 -13 16 -21 21
-21 13z"/>
<path d="M6247 16735 c3 -22 11 -67 18 -100 l13 -60 1 60 c0 40 -6 73 -19 100
l-19 40 6 -40z"/>
<path d="M10744 16653 c-15 -21 -39 -53 -52 -70 l-24 -33 39 0 c39 0 39 0 35
35 -3 23 3 45 18 70 28 46 20 45 -16 -2z"/>
<path d="M18682 16592 c-7 -46 -16 -91 -19 -100 -2 -10 5 -3 17 15 17 26 20
43 18 100 l-3 68 -13 -83z"/>
<path d="M13228 16640 c10 -27 -1 -69 -21 -82 -7 -4 12 -8 41 -8 28 0 52 3 52
6 0 5 -49 72 -72 99 -5 6 -5 -1 0 -15z"/>
<path d="M14544 16487 c10 -15 23 -27 28 -27 16 0 4 22 -22 39 l-24 16 18 -28z"/>
<path d="M6307 16435 c3 -22 10 -51 14 -65 7 -22 7 -21 8 10 0 19 -6 49 -14
65 l-14 30 6 -40z"/>
<path d="M18637 16351 c-10 -54 -21 -109 -24 -122 -3 -16 2 -11 17 15 15 27
23 63 27 122 3 46 4 84 2 84 -2 0 -12 -44 -22 -99z"/>
<path d="M6330 16320 c1 -3 9 -39 20 -80 l19 -75 0 50 c1 34 -5 60 -19 80 -11
17 -20 28 -20 25z"/>
<path d="M18587 16110 c-10 -47 -33 -148 -51 -225 -30 -125 -31 -141 -17 -147
35 -15 38 -9 39 109 2 104 5 122 27 165 22 41 25 60 23 116 l-3 67 -18 -85z"/>
<path d="M6371 16144 c0 -11 3 -14 6 -6 3 7 2 16 -1 19 -3 4 -6 -2 -5 -13z"/>
<path d="M6395 16048 c8 -35 21 -55 30 -46 7 7 -21 78 -30 78 -4 0 -4 -15 0
-32z"/>
<path d="M10625 15579 c-251 -14 -254 -17 -15 -13 129 2 253 8 275 13 35 8 30
9 -40 8 -44 0 -143 -4 -220 -8z"/>
<path d="M13040 15580 c19 -5 150 -11 290 -14 182 -3 222 -2 140 4 -199 14
-469 20 -430 10z"/>
<path d="M10082 15546 l-144 -11 -45 -65 -46 -65 55 53 55 53 106 10 c113 11
260 38 197 37 -19 -1 -99 -6 -178 -12z"/>
<path d="M13965 15530 c28 -12 78 -12 70 0 -3 6 -25 10 -48 9 -33 0 -38 -2
-22 -9z"/>
<path d="M8570 15395 l-85 -12 68 -2 c38 0 77 -6 88 -12 17 -8 23 -7 35 8 28
37 27 37 -106 18z"/>
<path d="M15291 15373 c12 -21 29 -47 36 -58 13 -19 13 -19 13 2 0 30 46 63
89 64 21 1 1 7 -49 14 -121 19 -115 20 -89 -22z"/>
<path d="M8428 15373 c6 -2 18 -2 25 0 6 3 1 5 -13 5 -14 0 -19 -2 -12 -5z"/>
<path d="M15508 15373 c7 -3 16 -2 19 1 4 3 -2 6 -13 5 -11 0 -14 -3 -6 -6z"/>
<path d="M8245 15349 l-110 -18 90 3 c53 3 105 10 125 20 43 19 34 18 -105 -5z"/>
<path d="M15595 15349 c31 -14 61 -18 130 -18 l90 1 -115 18 c-144 23 -155 23
-105 -1z"/>
<path d="M9772 15292 l-23 -37 25 28 c14 15 26 32 26 38 0 15 -4 11 -28 -29z"/>
<path d="M15838 15323 c6 -2 18 -2 25 0 6 3 1 5 -13 5 -14 0 -19 -2 -12 -5z"/>
<path d="M7915 15300 l-100 -19 93 3 c71 2 96 6 109 19 20 20 26 20 -102 -3z"/>
<path d="M15920 15303 c20 -9 70 -17 120 -19 l85 -3 -100 19 c-125 24 -152 24
-105 3z"/>
<path d="M7645 15254 l-120 -23 101 4 c72 4 115 11 145 25 59 26 29 25 -126
-6z"/>
<path d="M16220 15256 c14 -7 63 -16 110 -19 l85 -6 -65 14 c-36 7 -85 16
-110 19 -43 6 -44 6 -20 -8z"/>
<path d="M9627 15073 c-592 -914 -1074 -1756 -1550 -2708 -172 -345 -184 -373
-172 -395 13 -25 13 -24 21 15 4 22 15 56 25 75 11 19 19 45 19 57 0 12 5 25
11 29 6 3 19 25 28 48 10 23 26 47 35 55 9 7 16 23 16 36 0 12 9 30 20 40 11
10 22 33 26 51 3 18 14 40 24 49 11 10 22 30 25 45 3 15 15 36 26 46 10 9 19
27 19 40 0 12 11 36 25 52 14 17 25 41 25 54 0 14 9 33 19 42 10 10 22 32 25
50 4 18 15 41 26 51 11 10 20 27 20 38 0 10 11 32 25 49 14 16 25 38 25 47 0
10 11 30 25 45 14 15 25 37 25 50 0 13 9 31 19 40 11 10 23 31 26 47 4 16 11
32 17 35 5 3 18 25 29 48 11 22 31 59 44 81 14 22 33 58 43 80 11 22 27 46 36
54 9 7 16 23 16 35 0 13 11 33 25 46 14 13 25 31 25 40 0 10 9 28 19 41 10 14
26 40 35 59 9 19 27 53 41 75 13 22 30 51 36 65 7 14 22 35 32 47 22 25 39 52
61 98 8 17 24 39 35 49 12 11 21 28 21 39 0 10 11 32 25 49 14 16 25 38 25 48
0 10 7 25 15 34 8 8 31 45 51 83 20 37 42 71 49 76 8 4 16 21 20 37 4 16 11
32 16 35 12 8 79 110 79 122 0 5 9 18 21 29 11 10 27 32 35 49 23 48 40 74 63
99 11 12 21 29 21 38 0 8 23 44 50 78 28 34 50 68 50 75 0 7 7 18 16 25 8 8
22 27 30 44 25 51 48 91 72 121 12 15 22 33 22 40 0 6 9 22 20 35 11 13 20 26
20 30 0 4 11 19 25 34 21 23 34 56 21 56 -2 0 -55 -80 -119 -177z"/>
<path d="M7390 15210 l-85 -18 60 0 c41 -1 71 5 95 18 41 23 40 23 -70 0z"/>
<path d="M16507 15209 c7 -7 38 -14 70 -15 49 -3 53 -2 23 5 -79 19 -105 22
-93 10z"/>
<path d="M7146 15164 c-97 -19 -102 -25 -20 -20 45 2 80 9 95 20 28 19 19 19
-75 0z"/>
<path d="M16735 15164 c23 -17 71 -26 116 -22 26 2 15 7 -50 19 -67 13 -81 14
-66 3z"/>
<path d="M6925 15119 c-120 -25 -125 -30 -30 -22 48 3 94 13 115 24 42 23 31
23 -85 -2z"/>
<path d="M16961 15115 c14 -8 57 -17 95 -19 l69 -6 -80 20 c-94 23 -120 25
-84 5z"/>
<path d="M6730 15078 c-25 -5 -48 -13 -53 -17 -4 -4 2 -32 12 -62 16 -44 20
-49 20 -25 1 20 14 42 45 72 24 24 38 44 32 43 -6 -1 -31 -6 -56 -11z"/>
<path d="M17204 15066 c11 -9 25 -16 32 -16 6 0 23 -9 38 -21 l26 -20 0 24 c0
21 -6 26 -37 31 -21 4 -47 9 -58 12 -20 5 -20 5 -1 -10z"/>
<path d="M15590 14891 c0 -6 4 -13 10 -16 6 -3 7 1 4 9 -7 18 -14 21 -14 7z"/>
<path d="M6741 14834 c0 -11 3 -14 6 -6 3 7 2 16 -1 19 -3 4 -6 -2 -5 -13z"/>
<path d="M5540 14771 c-85 -27 -191 -60 -235 -74 -74 -24 -77 -26 -40 -26 23
-1 61 10 90 24 29 14 68 25 94 25 26 0 57 8 76 20 35 22 153 42 195 33 25 -5
27 -3 23 21 -7 35 -18 34 -203 -23z"/>
<path d="M18226 14753 c-10 -32 -21 -65 -24 -73 -3 -8 15 6 40 33 43 45 46 47
104 48 l59 1 -75 24 c-41 13 -78 24 -81 24 -3 0 -13 -26 -23 -57z"/>
<path d="M6766 14758 c4 -13 13 -39 20 -58 l13 -35 0 32 c1 35 -17 83 -31 83
-5 0 -6 -10 -2 -22z"/>
<path d="M18428 14744 c13 -9 42 -18 65 -20 l42 -4 -50 19 c-63 24 -87 26 -57
5z"/>
<path d="M5140 14645 c-36 -13 -56 -24 -45 -24 32 -1 92 18 105 34 7 8 11 15
9 14 -2 0 -33 -11 -69 -24z"/>
<path d="M15730 14665 c1 -14 69 -122 70 -110 0 6 -16 35 -35 65 -19 30 -35
50 -35 45z"/>
<path d="M6806 14640 c4 -14 13 -41 20 -60 l13 -35 0 30 c1 17 -8 44 -20 60
-19 28 -20 28 -13 5z"/>
<path d="M18108 14395 c-94 -285 -221 -635 -340 -939 -49 -127 -93 -238 -96
-246 -4 -11 0 -10 16 4 12 11 24 36 28 62 3 24 14 55 24 67 10 13 22 41 25 63
4 21 14 46 21 54 7 9 18 39 24 67 6 28 20 59 31 69 11 10 19 30 19 49 0 19 8
39 20 50 12 11 22 37 26 67 4 27 14 56 22 64 8 9 19 36 24 62 4 26 17 59 28
74 11 15 20 40 20 56 0 16 9 41 20 54 10 14 22 45 26 69 4 24 15 55 25 69 9
14 20 47 23 73 3 27 15 60 26 74 12 16 20 41 20 65 0 22 12 64 26 93 14 30 24
67 22 82 -2 19 -28 -48 -80 -202z"/>
<path d="M4895 14560 c-211 -77 -223 -82 -165 -74 25 4 56 15 69 25 13 11 40
19 61 19 22 0 48 8 63 20 14 11 47 24 72 29 26 5 54 16 63 25 24 24 12 21
-163 -44z"/>
<path d="M18902 14594 c8 -9 26 -14 39 -12 20 2 18 5 -15 15 -36 11 -38 11
-24 -3z"/>
<path d="M19017 14555 c12 -8 37 -18 55 -21 27 -4 24 -1 -17 16 -60 24 -66 25
-38 5z"/>
<path d="M15817 14513 c10 -18 20 -28 22 -22 2 6 -6 21 -19 33 l-21 21 18 -32z"/>
<path d="M6861 14485 c0 -5 7 -26 14 -45 9 -23 14 -28 14 -15 0 11 -6 31 -14
45 -8 14 -14 21 -14 15z"/>
<path d="M4450 14391 c-486 -198 -854 -378 -1230 -603 -143 -86 -426 -274
-436 -290 -8 -13 25 5 79 42 23 17 65 46 92 65 28 19 55 35 62 35 6 0 18 8 25
18 7 10 25 25 39 33 84 45 107 59 118 73 8 9 22 16 31 16 10 0 31 10 47 23 38
30 62 45 103 63 19 9 45 25 59 35 13 10 31 19 41 19 10 0 28 8 41 19 13 10 35
22 49 26 14 4 34 15 45 25 11 10 31 21 45 25 14 4 34 15 45 25 11 9 34 21 50
24 17 4 38 16 48 27 10 10 28 19 41 19 12 0 84 31 159 69 75 38 148 72 163 75
15 4 39 16 52 27 14 10 38 19 54 19 17 0 41 9 54 19 14 11 42 22 63 26 22 4
47 15 57 26 9 10 30 19 47 19 16 0 42 11 59 25 16 14 39 25 51 25 12 0 36 9
52 20 17 11 26 20 20 19 -5 0 -107 -39 -225 -88z"/>
<path d="M15870 14421 c0 -6 4 -13 10 -16 6 -3 7 1 4 9 -7 18 -14 21 -14 7z"/>
<path d="M19524 14366 c11 -9 24 -16 30 -16 12 0 7 5 -24 19 -24 11 -24 11 -6
-3z"/>
<path d="M6916 14320 c22 -58 29 -64 20 -20 -3 19 -13 42 -22 50 -13 13 -13 8
2 -30z"/>
<path d="M19657 14309 c7 -7 15 -10 18 -7 3 3 -2 9 -12 12 -14 6 -15 5 -6 -5z"/>
<path d="M19770 14260 c8 -5 20 -10 25 -10 6 0 3 5 -5 10 -8 5 -19 10 -25 10
-5 0 -3 -5 5 -10z"/>
<path d="M6944 14245 c3 -11 15 -42 26 -70 l20 -50 -6 40 c-4 22 -15 54 -26
70 -12 18 -17 22 -14 10z"/>
<path d="M19870 14215 c14 -8 30 -14 35 -14 6 0 -1 6 -15 14 -14 8 -29 14 -35
14 -5 0 1 -6 15 -14z"/>
<path d="M16010 14182 c6 -13 14 -21 18 -18 3 4 -2 14 -12 24 -18 16 -18 16
-6 -6z"/>
<path d="M6990 14120 c0 -3 9 -27 20 -55 14 -37 19 -44 19 -25 1 14 -8 39 -19
55 -11 17 -20 28 -20 25z"/>
<path d="M16062 14090 c7 -10 14 -18 15 -16 6 6 -9 36 -18 36 -5 0 -4 -9 3
-20z"/>
<path d="M20164 14076 c11 -9 24 -16 30 -16 12 0 7 5 -24 19 -24 11 -24 11 -6
-3z"/>
<path d="M20257 14029 c7 -7 15 -10 18 -7 3 3 -2 9 -12 12 -14 6 -15 5 -6 -5z"/>
<path d="M7056 13940 c22 -56 24 -59 24 -28 0 14 -9 36 -20 49 l-20 24 16 -45z"/>
<path d="M20602 13844 c10 -10 20 -16 22 -13 3 3 -5 11 -17 18 -21 13 -21 12
-5 -5z"/>
<path d="M7106 13807 c9 -26 18 -47 20 -47 9 0 -10 66 -22 80 -11 11 -11 4 2
-33z"/>
<path d="M20679 13801 c13 -12 28 -21 34 -21 12 0 11 0 -28 24 l-30 17 24 -20z"/>
<path d="M16241 13773 c7 -12 15 -20 18 -17 3 2 -3 12 -13 22 -17 16 -18 16
-5 -5z"/>
<path d="M22330 13776 c0 -2 8 -10 18 -17 15 -13 16 -12 3 4 -13 16 -21 21
-21 13z"/>
<path d="M22380 13726 c0 -2 8 -10 18 -17 15 -13 16 -12 3 4 -13 16 -21 21
-21 13z"/>
<path d="M7151 13693 c11 -34 19 -42 19 -20 0 7 -7 22 -15 33 -13 17 -14 16
-4 -13z"/>
<path d="M16296 13677 c3 -10 9 -15 12 -12 3 3 0 11 -7 18 -10 9 -11 8 -5 -6z"/>
<path d="M22420 13686 c0 -2 8 -10 18 -17 15 -13 16 -12 3 4 -13 16 -21 21
-21 13z"/>
<path d="M16340 13590 c6 -11 13 -20 16 -20 2 0 0 9 -6 20 -6 11 -13 20 -16
20 -2 0 0 -9 6 -20z"/>
<path d="M7196 13580 c3 -14 10 -32 15 -40 7 -12 8 -11 9 6 0 11 -7 29 -16 40
-14 18 -15 18 -8 -6z"/>
<path d="M21044 13571 c7 -11 46 -35 46 -28 0 3 -12 12 -26 22 -15 9 -23 12
-20 6z"/>
<path d="M22555 13540 c10 -11 20 -20 23 -20 3 0 -3 9 -13 20 -10 11 -20 20
-23 20 -3 0 3 -9 13 -20z"/>
<path d="M16385 13510 c22 -45 29 -52 20 -20 -4 14 -14 32 -22 40 -12 12 -11
7 2 -20z"/>
<path d="M21110 13521 c0 -9 30 -24 36 -18 2 1 -6 8 -16 15 -11 7 -20 8 -20 3z"/>
<path d="M2684 13426 c-535 -407 -886 -862 -958 -1246 -28 -148 -13 -342 37
-475 l16 -40 0 39 c1 24 -8 53 -21 75 -22 34 -23 46 -23 231 0 184 1 197 23
235 12 22 22 54 22 70 0 17 11 46 25 65 14 19 25 41 25 51 0 9 9 27 19 41 11
13 23 36 26 51 4 14 15 33 26 43 10 9 19 25 19 35 0 9 19 41 43 71 23 29 59
78 79 108 20 30 55 75 78 100 23 25 70 77 105 115 34 39 73 82 86 96 13 14 53
50 89 80 36 30 77 65 91 79 47 45 113 100 159 130 58 39 126 97 120 103 -3 3
-41 -23 -86 -57z"/>
<path d="M7245 13453 c9 -20 18 -39 22 -42 5 -6 3 2 -13 59 -3 11 -10 20 -15
20 -5 0 -2 -17 6 -37z"/>
<path d="M21225 13441 c19 -22 55 -46 55 -38 0 3 -17 17 -37 33 -31 23 -34 24
-18 5z"/>
<path d="M16432 13425 c6 -14 13 -23 16 -21 7 7 -9 46 -18 46 -5 0 -4 -11 2
-25z"/>
<path d="M21290 13396 c0 -2 8 -10 18 -17 15 -13 16 -12 3 4 -13 16 -21 21
-21 13z"/>
<path d="M16476 13342 c10 -18 20 -28 23 -21 2 6 -7 21 -19 33 l-23 21 19 -33z"/>
<path d="M7290 13343 c0 -4 5 -15 10 -23 8 -13 10 -13 10 2 0 9 -4 20 -10 23
-5 3 -10 3 -10 -2z"/>
<path d="M16545 13215 c47 -89 49 -91 62 -56 10 27 9 30 -18 41 -16 7 -29 15
-29 19 0 3 -12 20 -26 36 -22 26 -20 20 11 -40z"/>
<path d="M7347 13208 c14 -38 29 -68 33 -68 6 0 30 44 30 55 0 3 -6 5 -14 5
-8 0 -28 17 -45 38 l-30 37 26 -67z"/>
<path d="M17557 12934 c-60 -143 -111 -266 -114 -274 -5 -11 -1 -10 14 3 11
10 24 32 27 49 3 18 13 40 22 49 9 10 20 37 25 60 5 23 19 53 29 67 11 13 20
36 20 49 0 13 9 36 19 51 11 15 22 43 25 63 4 21 16 49 27 63 12 15 19 37 17
52 -2 19 -35 -50 -111 -232z"/>
<path d="M13720 13020 c6 -11 13 -20 16 -20 2 0 0 9 -6 20 -6 11 -13 20 -16
20 -2 0 0 -9 6 -20z"/>
<path d="M13756 12960 c21 -43 24 -47 24 -28 0 9 -9 26 -20 39 l-21 24 17 -35z"/>
<path d="M13805 12860 c22 -45 29 -52 20 -20 -4 14 -14 32 -22 40 -12 12 -11
7 2 -20z"/>
<path d="M13850 12753 c0 -4 5 -15 10 -23 8 -13 10 -13 10 2 0 9 -4 20 -10 23
-5 3 -10 3 -10 -2z"/>
<path d="M23088 12695 c5 -11 12 -27 15 -35 5 -13 6 -13 6 1 1 8 -6 24 -15 35
-15 19 -15 19 -6 -1z"/>
<path d="M17411 12589 c-20 -50 -20 -52 -2 -35 19 17 38 72 28 82 -2 2 -14
-19 -26 -47z"/>
<path d="M13906 12595 c8 -37 14 -45 14 -19 0 10 -5 26 -10 34 -8 11 -9 7 -4
-15z"/>
<path d="M17376 12510 c-5 -14 -57 -132 -117 -263 l-108 -238 22 -46 22 -45 5
85 c4 59 10 91 22 104 9 10 21 38 28 63 7 24 20 55 31 68 10 14 19 37 19 52 0
15 9 35 20 45 11 10 20 28 20 40 0 12 11 44 26 70 14 26 23 57 22 69 -4 20 -4
19 -12 -4z"/>
<path d="M13944 12440 c3 -14 10 -43 16 -65 9 -38 10 -38 5 14 -2 30 -9 59
-15 65 -8 8 -10 4 -6 -14z"/>
<path d="M23186 12350 c8 -43 14 -51 14 -19 0 13 -5 31 -10 39 -7 11 -8 5 -4
-20z"/>
<path d="M6801 12025 c0 -11 4 -29 9 -40 8 -18 9 -18 9 5 0 14 -4 32 -9 40 -8
12 -10 12 -9 -5z"/>
<path d="M13993 11960 c0 -47 2 -66 4 -42 2 23 2 61 0 85 -2 23 -4 4 -4 -43z"/>
<path d="M23223 11980 c0 -36 2 -50 4 -32 2 17 2 47 0 65 -2 17 -4 3 -4 -33z"/>
<path d="M17270 11753 c0 -4 5 -15 10 -23 8 -13 10 -13 10 2 0 9 -4 20 -10 23
-5 3 -10 3 -10 -2z"/>
<path d="M23188 11685 c-3 -22 -9 -56 -13 -75 l-6 -35 16 28 c10 18 15 45 13
75 l-3 47 -7 -40z"/>
<path d="M13952 11625 c-7 -38 -15 -81 -18 -95 -5 -24 -5 -24 10 -6 18 22 29
86 24 136 -2 29 -5 23 -16 -35z"/>
<path d="M17318 11655 c5 -11 12 -27 15 -35 5 -13 6 -13 6 1 1 8 -6 24 -15 35
-15 19 -15 19 -6 -1z"/>
<path d="M1807 11590 c9 -22 18 -38 20 -36 5 5 -24 76 -31 76 -2 0 3 -18 11
-40z"/>
<path d="M8086 11600 c21 -43 24 -47 24 -28 0 9 -9 26 -20 39 l-21 24 17 -35z"/>
<path d="M8137 11496 c9 -20 18 -34 19 -33 7 7 -13 61 -24 65 -9 3 -7 -8 5
-32z"/>
<path d="M23133 11460 c-12 -41 -20 -76 -18 -78 9 -9 46 92 43 120 -3 28 -6
23 -25 -42z"/>
<path d="M13887 11379 c-71 -220 -205 -460 -359 -644 -181 -217 -392 -385
-643 -514 -54 -28 -91 -51 -81 -51 20 0 69 22 111 50 17 11 48 28 70 39 22 10
46 26 54 35 7 9 19 16 25 16 12 0 91 52 115 76 9 8 40 30 68 48 58 36 303 276
303 296 0 7 11 26 25 44 35 42 73 88 89 106 7 8 17 26 21 40 4 14 15 34 25 45
10 11 25 36 34 55 22 47 40 76 59 98 9 9 20 37 26 60 5 24 16 51 24 60 8 9 18
35 22 57 3 22 13 47 21 56 12 14 39 138 31 145 -1 1 -19 -51 -40 -117z"/>
<path d="M8181 11406 c7 -15 15 -23 17 -16 3 7 -3 19 -13 28 -15 16 -16 15 -4
-12z"/>
<path d="M17420 11425 c0 -5 5 -17 10 -25 5 -8 10 -10 10 -5 0 6 -5 17 -10 25
-5 8 -10 11 -10 5z"/>
<path d="M23087 11325 l-17 -50 21 21 c14 14 19 31 17 50 -3 27 -5 25 -21 -21z"/>
<path d="M8231 11320 c14 -31 19 -36 19 -24 0 6 -7 19 -16 30 -14 18 -14 18
-3 -6z"/>
<path d="M17460 11333 c0 -4 5 -15 10 -23 8 -13 10 -13 10 2 0 9 -4 20 -10 23
-5 3 -10 3 -10 -2z"/>
<path d="M23003 11139 c-34 -71 -58 -127 -54 -124 18 10 132 256 119 255 -2
-1 -31 -59 -65 -131z"/>
<path d="M8276 11230 c21 -43 24 -47 24 -28 0 9 -9 26 -20 39 l-21 24 17 -35z"/>
<path d="M17506 11227 c3 -10 9 -15 12 -12 3 3 0 11 -7 18 -10 9 -11 8 -5 -6z"/>
<path d="M8316 11150 c10 -21 19 -30 22 -21 2 7 -6 23 -18 35 l-22 21 18 -35z"/>
<path d="M17562 11099 c6 -16 12 -28 14 -26 5 5 -13 57 -20 57 -3 0 0 -14 6
-31z"/>
<path d="M8371 11046 c7 -15 15 -23 17 -16 3 7 -3 19 -13 28 -15 16 -16 15 -4
-12z"/>
<path d="M17601 11006 c7 -15 15 -23 17 -16 3 7 -3 19 -13 28 -15 16 -16 15
-4 -12z"/>
<path d="M8416 10965 c24 -39 24 -40 24 -28 0 6 -9 21 -21 34 l-20 24 17 -30z"/>
<path d="M22900 10943 c-21 -35 -21 -37 -2 -20 17 16 37 57 27 57 -2 0 -13
-17 -25 -37z"/>
<path d="M17651 10893 c11 -34 19 -42 19 -20 0 7 -7 22 -15 33 -13 17 -14 16
-4 -13z"/>
<path d="M8487 10833 c21 -40 40 -68 41 -63 3 9 -21 51 -66 116 -7 11 4 -14
25 -53z"/>
<path d="M16518 10732 c-43 -81 -108 -203 -144 -272 -52 -98 -61 -120 -41
-101 15 14 27 32 27 41 0 10 10 29 23 43 46 54 67 86 67 100 0 9 11 29 25 45
14 17 25 41 25 55 0 13 6 30 13 36 8 6 22 29 32 50 18 41 60 66 90 55 12 -5
10 5 -6 45 -12 28 -24 51 -28 51 -3 0 -41 -66 -83 -148z"/>
<path d="M22826 10824 c-21 -31 -33 -53 -27 -50 14 9 73 97 68 102 -2 3 -21
-21 -41 -52z"/>
<path d="M7372 10833 c-11 -20 -79 -184 -93 -223 l-9 -25 20 24 c11 13 20 31
20 40 0 9 15 31 33 49 41 39 86 43 111 10 9 -13 -3 13 -26 57 -23 44 -42 82
-44 83 -1 2 -7 -5 -12 -15z"/>
<path d="M17690 10794 c1 -16 29 -60 29 -44 0 8 -6 24 -14 34 -8 11 -15 16
-15 10z"/>
<path d="M8552 10715 c28 -51 28 -51 28 -32 0 9 -11 29 -25 44 l-26 28 23 -40z"/>
<path d="M22747 10713 c-14 -21 -39 -57 -57 -80 -17 -24 -29 -43 -27 -43 9 0
119 151 114 156 -2 2 -16 -13 -30 -33z"/>
<path d="M17740 10683 c0 -6 7 -26 15 -44 l16 -34 -7 35 c-6 34 -24 66 -24 43z"/>
<path d="M8602 10620 c14 -22 24 -19 15 5 -4 8 -11 15 -17 15 -6 0 -6 -7 2
-20z"/>
<path d="M17791 10550 c19 -50 41 -91 26 -47 -4 10 -7 27 -7 37 0 10 -9 28
-20 41 -20 24 -20 23 1 -31z"/>
<path d="M7247 10533 c-14 -37 -14 -45 -3 -33 13 14 33 80 24 80 -2 0 -12 -21
-21 -47z"/>
<path d="M8651 10533 c7 -12 15 -20 18 -17 3 2 -3 12 -13 22 -17 16 -18 16 -5
-5z"/>
<path d="M22475 10382 c-117 -125 -336 -333 -450 -428 -201 -165 -523 -396
-737 -528 -43 -27 -78 -49 -78 -51 0 -8 47 10 65 24 35 29 84 61 107 71 13 6
43 26 68 45 25 19 56 40 70 46 13 5 31 17 40 25 33 31 78 64 88 64 6 0 48 31
94 69 46 37 92 71 103 75 12 3 44 27 73 54 57 52 78 68 136 109 55 39 470 450
500 496 14 20 24 37 23 37 -1 0 -47 -48 -102 -108z"/>
<path d="M17836 10435 c20 -49 24 -54 24 -28 0 12 -9 31 -20 44 l-20 24 16
-40z"/>
<path d="M7166 10330 c-26 -69 -57 -147 -68 -175 l-19 -49 20 18 c12 11 21 28
21 38 0 22 16 56 37 76 7 7 13 26 13 41 0 16 11 50 26 76 14 26 24 60 22 74
-2 19 -17 -9 -52 -99z"/>
<path d="M17871 10343 c1 -17 38 -87 38 -75 1 16 -26 82 -33 82 -4 0 -6 -3 -5
-7z"/>
<path d="M16230 10199 c-40 -74 -80 -145 -89 -158 -15 -23 -15 -24 7 -12 12 6
22 19 22 28 0 9 10 33 23 52 41 65 47 76 63 110 8 18 25 46 36 61 11 16 18 34
16 41 -2 7 -37 -48 -78 -122z"/>
<path d="M8787 10293 c10 -18 20 -28 22 -22 2 6 -6 21 -19 33 l-21 21 18 -32z"/>
<path d="M8840 10202 c6 -13 14 -21 18 -18 3 4 -2 14 -12 24 -18 16 -18 16 -6
-6z"/>
<path d="M17937 10175 c17 -50 27 -60 17 -17 -11 52 -15 62 -24 62 -5 0 -2
-20 7 -45z"/>
<path d="M12715 10144 c-77 -32 -200 -70 -307 -93 l-83 -19 60 -1 c44 0 73 6
110 24 31 15 68 25 96 25 33 0 51 6 63 19 10 11 35 22 56 26 21 4 46 15 56 26
21 23 22 24 -51 -7z"/>
<path d="M17965 10101 c4 -14 14 -38 22 -55 l14 -31 -5 39 c-3 22 -13 47 -22
55 -15 15 -16 14 -9 -8z"/>
<path d="M11350 10100 c0 -9 25 -20 48 -20 9 0 40 -12 67 -25 38 -19 65 -25
115 -24 l65 0 -90 20 c-49 10 -116 27 -147 38 -32 10 -58 15 -58 11z"/>
<path d="M7051 10034 c-26 -69 -26 -73 0 -41 18 24 39 97 27 97 -3 0 -15 -25
-27 -56z"/>
<path d="M11915 9999 c51 -10 157 -10 215 0 32 6 0 8 -105 8 -102 0 -137 -2
-110 -8z"/>
<path d="M15990 9773 c-74 -130 -210 -362 -301 -515 -91 -152 -162 -275 -158
-272 11 6 79 109 79 118 0 4 20 32 45 60 25 29 45 60 45 69 0 9 11 28 25 43
14 15 25 35 25 44 0 10 9 29 21 44 11 14 34 52 51 84 17 31 39 65 49 75 11 10
19 28 19 41 0 12 11 32 25 44 14 12 25 30 25 41 0 10 9 29 19 42 10 14 26 40
35 59 9 19 27 53 40 75 14 22 32 57 41 78 10 20 21 37 26 37 10 0 31 48 27 61
-2 4 -64 -98 -138 -228z"/>
<path d="M18023 9941 c12 -34 23 -57 25 -52 6 17 -18 88 -33 101 -10 9 -8 -5
8 -49z"/>
<path d="M8980 9962 c6 -13 14 -21 18 -18 3 4 -2 14 -12 24 -18 16 -18 16 -6
-6z"/>
<path d="M6934 9710 c-106 -296 -279 -818 -273 -824 2 -2 13 -6 24 -10 19 -5
20 -1 20 72 0 65 4 82 23 106 12 16 22 43 22 61 0 18 9 44 21 59 12 15 23 46
26 69 3 23 13 56 23 72 10 17 21 51 24 77 4 26 15 57 25 70 10 13 20 44 23 70
3 26 15 59 27 74 13 16 21 41 21 64 0 22 8 48 20 63 11 14 20 36 20 50 0 13
11 46 26 72 15 29 24 60 22 79 -2 23 -26 -34 -94 -224z"/>
<path d="M9035 9870 c9 -16 18 -30 21 -30 2 0 -2 14 -11 30 -9 17 -18 30 -21
30 -2 0 2 -13 11 -30z"/>
<path d="M18073 9804 c10 -33 13 -35 15 -15 2 13 -3 31 -12 39 -14 14 -14 12
-3 -24z"/>
<path d="M9070 9810 c6 -11 13 -20 16 -20 2 0 0 9 -6 20 -6 11 -13 20 -16 20
-2 0 0 -9 6 -20z"/>
<path d="M9117 9733 c10 -18 20 -28 22 -22 2 6 -6 21 -19 33 l-21 21 18 -32z"/>
<path d="M18110 9698 c0 -3 7 -21 15 -39 16 -34 16 -34 10 -4 -6 26 -25 60
-25 43z"/>
<path d="M9171 9643 c7 -12 15 -20 18 -17 3 2 -3 12 -13 22 -17 16 -18 16 -5
-5z"/>
<path d="M18171 9520 c15 -45 24 -54 15 -15 -4 17 -12 34 -17 40 -5 5 -4 -6 2
-25z"/>
<path d="M9260 9503 c0 -5 7 -18 15 -29 13 -18 14 -18 8 4 -5 22 -23 41 -23
25z"/>
<path d="M9316 9407 c3 -10 9 -15 12 -12 3 3 0 11 -7 18 -10 9 -11 8 -5 -6z"/>
<path d="M18211 9410 c0 -8 4 -24 9 -35 l9 -20 0 20 c0 11 -4 27 -9 35 -9 13
-10 13 -9 0z"/>
<path d="M9351 9353 c7 -12 15 -20 18 -17 3 2 -3 12 -13 22 -17 16 -18 16 -5
-5z"/>
<path d="M21087 9306 c-60 -35 -111 -67 -115 -71 -14 -16 54 7 73 24 11 10 45
32 76 50 46 25 93 62 78 61 -2 -1 -53 -29 -112 -64z"/>
<path d="M9401 9273 c7 -12 15 -20 18 -17 3 2 -3 12 -13 22 -17 16 -18 16 -5
-5z"/>
<path d="M18268 9240 c2 -8 6 -27 9 -42 5 -26 33 -41 33 -18 0 6 -4 10 -9 10
-4 0 -15 15 -23 33 -8 17 -12 25 -10 17z"/>
<path d="M20917 9209 c-22 -11 -37 -22 -35 -24 9 -9 60 10 69 26 12 23 13 23
-34 -2z"/>
<path d="M20550 9018 c-209 -106 -302 -158 -277 -155 20 3 49 15 64 26 14 12
33 21 43 21 10 0 28 8 41 19 13 10 35 22 49 26 14 4 32 13 40 20 8 7 31 20 50
30 54 25 78 37 154 78 39 20 88 44 108 53 20 9 39 23 42 30 3 8 4 13 3 13 -1
-1 -144 -73 -317 -161z"/>
<path d="M9496 9127 c3 -10 9 -15 12 -12 3 3 0 11 -7 18 -10 9 -11 8 -5 -6z"/>
<path d="M9590 8982 c6 -13 14 -21 18 -18 3 4 -2 14 -12 24 -18 16 -18 16 -6
-6z"/>
<path d="M3437 8959 c7 -7 15 -10 18 -7 3 3 -2 9 -12 12 -14 6 -15 5 -6 -5z"/>
<path d="M15448 8861 c-37 -61 -61 -108 -53 -104 8 3 15 9 15 13 0 5 14 21 30
37 17 15 30 34 30 42 0 8 12 32 26 52 14 21 24 45 22 53 -2 9 -32 -31 -70 -93z"/>
<path d="M17318 8939 c-18 -30 -18 -30 5 -23 29 9 29 8 20 32 -8 20 -9 20 -25
-9z"/>
<path d="M3504 8926 c11 -9 24 -16 30 -16 12 0 7 5 -24 19 -24 11 -24 11 -6
-3z"/>
<path d="M9635 8906 c10 -14 19 -26 22 -26 7 0 -17 39 -28 46 -6 3 -3 -5 6
-20z"/>
<path d="M8490 8891 c0 -5 7 -15 17 -22 15 -13 15 -12 4 9 -12 23 -21 28 -21
13z"/>
<path d="M3604 8876 c11 -9 24 -16 30 -16 12 0 7 5 -24 19 -24 11 -24 11 -6
-3z"/>
<path d="M9675 8847 c10 -15 20 -25 23 -22 3 3 -5 16 -17 28 l-23 22 17 -28z"/>
<path d="M20170 8835 c-31 -17 -39 -24 -24 -25 11 0 35 11 54 25 43 31 29 31
-30 0z"/>
<path d="M3707 8829 c7 -7 15 -10 18 -7 3 3 -2 9 -12 12 -14 6 -15 5 -6 -5z"/>
<path d="M19952 8741 c-118 -51 -147 -67 -126 -69 16 -2 38 5 54 17 16 11 41
23 56 27 16 4 47 17 70 30 22 13 50 24 61 24 11 0 28 9 38 20 10 11 14 20 9
19 -5 -1 -78 -31 -162 -68z"/>
<path d="M15335 8678 c-21 -35 -45 -73 -53 -85 -14 -22 -13 -23 17 -23 30 0
31 1 31 44 0 25 5 48 10 51 13 8 43 65 37 71 -2 2 -21 -24 -42 -58z"/>
<path d="M9771 8703 c7 -12 15 -20 18 -17 3 2 -3 12 -13 22 -17 16 -18 16 -5
-5z"/>
<path d="M7848 8663 c6 -2 18 -2 25 0 6 3 1 5 -13 5 -14 0 -19 -2 -12 -5z"/>
<path d="M19720 8644 c-46 -21 -49 -24 -21 -19 19 3 48 14 65 25 41 26 23 24
-44 -6z"/>
<path d="M8668 8591 c-3 -24 0 -32 15 -37 28 -9 30 0 9 36 l-20 31 -4 -30z"/>
<path d="M19475 8549 c-140 -55 -169 -69 -130 -64 28 4 58 14 67 22 10 9 38
19 63 24 26 5 58 18 72 29 14 11 38 20 53 20 15 0 35 9 45 20 10 11 16 20 14
19 -2 0 -85 -32 -184 -70z"/>
<path d="M4244 8595 c11 -8 26 -15 33 -15 22 0 14 8 -19 19 -30 10 -31 9 -14
-4z"/>
<path d="M4345 8550 c17 -11 41 -20 55 -19 19 0 12 5 -25 19 -63 25 -68 25
-30 0z"/>
<path d="M4485 8500 c3 -5 14 -10 23 -10 15 0 15 2 2 10 -20 13 -33 13 -25 0z"/>
<path d="M19025 8390 c-246 -85 -257 -89 -204 -90 42 0 60 5 73 19 9 10 37 21
63 25 26 3 55 13 65 23 10 9 40 20 68 24 28 4 62 17 77 28 14 12 38 21 53 21
15 0 38 9 51 20 13 10 22 19 19 19 -3 0 -122 -41 -265 -89z"/>
<path d="M9930 8466 c0 -2 8 -10 18 -17 15 -13 16 -12 3 4 -13 16 -21 21 -21
13z"/>
<path d="M4620 8450 c8 -5 22 -9 30 -9 10 0 8 3 -5 9 -27 12 -43 12 -25 0z"/>
<path d="M4744 8405 c11 -8 29 -15 40 -15 25 0 19 4 -24 18 -32 11 -33 10 -16
-3z"/>
<path d="M11308 8383 c7 -3 16 -2 19 1 4 3 -2 6 -13 5 -11 0 -14 -3 -6 -6z"/>
<path d="M12568 8383 c12 -2 30 -2 40 0 9 3 -1 5 -23 4 -22 0 -30 -2 -17 -4z"/>
<path d="M4860 8366 c8 -7 33 -17 55 -21 50 -9 44 -3 -20 19 -39 13 -46 13
-35 2z"/>
<path d="M5038 8308 c5 -5 16 -8 23 -6 8 3 3 7 -10 11 -17 4 -21 3 -13 -5z"/>
<path d="M18636 8264 c-44 -13 -80 -25 -82 -26 -1 -2 11 -55 27 -118 l29 -115
-6 76 c-3 44 -1 94 6 117 9 36 15 43 49 52 21 5 44 17 51 25 7 8 11 15 9 14
-2 0 -40 -11 -83 -25z"/>
<path d="M5174 8265 c11 -8 29 -15 40 -15 25 0 19 4 -24 18 -32 11 -33 10 -16
-3z"/>
<path d="M5428 8171 c16 -29 17 -29 25 -9 9 24 9 23 -20 32 -23 7 -23 7 -5
-23z"/>
<path d="M17445 7955 c-135 -32 -138 -33 -80 -34 33 0 78 7 100 16 64 25 112
27 142 8 26 -17 26 -17 20 6 -4 13 -7 27 -7 32 0 11 -24 7 -175 -28z"/>
<path d="M6370 7848 c-13 -57 -25 -110 -28 -118 -4 -11 -2 -12 7 -4 6 6 16 39
22 73 11 70 49 121 90 121 33 0 11 16 -32 24 l-36 6 -23 -102z"/>
<path d="M18621 7945 c0 -5 9 -46 19 -90 l20 -80 -6 64 c-3 36 -12 76 -19 90
-8 15 -14 22 -14 16z"/>
<path d="M17140 7889 c-64 -16 -68 -18 -26 -14 27 3 56 5 65 5 10 0 26 7 37
15 24 18 17 18 -76 -6z"/>
<path d="M16940 7849 l-85 -18 80 2 c58 2 87 7 105 20 22 15 22 17 5 16 -11
-1 -58 -10 -105 -20z"/>
<path d="M6844 7845 c12 -9 40 -15 70 -14 l51 1 -60 14 c-76 17 -84 17 -61 -1z"/>
<path d="M6993 7820 c16 -5 35 -14 43 -21 8 -7 55 -13 112 -15 l97 -4 -125 25
c-126 24 -179 30 -127 15z"/>
<path d="M16550 7779 l-265 -49 111 5 c82 3 122 10 155 24 31 15 66 21 119 21
57 1 89 7 130 25 30 13 46 24 35 23 -11 0 -139 -22 -285 -49z"/>
<path d="M7350 7755 c14 -7 64 -16 110 -19 l85 -6 -105 20 c-125 23 -122 23
-90 5z"/>
<path d="M16125 7710 l-100 -17 70 -1 c47 -1 85 5 115 18 54 23 45 23 -85 0z"/>
<path d="M7645 7705 c17 -8 59 -14 95 -13 l65 0 -80 13 c-101 17 -117 17 -80
0z"/>
<path d="M18675 7690 c3 -14 9 -43 14 -65 l9 -40 1 46 c1 27 -5 53 -14 65 -15
18 -15 18 -10 -6z"/>
<path d="M15968 7683 c7 -3 16 -2 19 1 4 3 -2 6 -13 5 -11 0 -14 -3 -6 -6z"/>
<path d="M7955 7660 c30 -15 61 -19 125 -19 l85 1 -95 14 c-52 7 -108 15 -125
18 -27 4 -26 3 10 -14z"/>
<path d="M15780 7659 l-115 -18 100 3 c63 2 113 9 135 19 45 20 26 19 -120 -4z"/>
<path d="M6303 7552 c-29 -129 -28 -140 3 -75 20 42 24 64 22 115 l-3 63 -22
-103z"/>
<path d="M8220 7618 c39 -18 67 -21 200 -24 l155 -3 -180 24 c-223 30 -231 30
-175 3z"/>
<path d="M15390 7609 l-125 -18 120 3 c79 3 132 9 155 19 l35 15 -30 0 c-16 0
-86 -9 -155 -19z"/>
<path d="M8638 7583 c7 -3 16 -2 19 1 4 3 -2 6 -13 5 -11 0 -14 -3 -6 -6z"/>
<path d="M15040 7570 l-145 -17 115 -1 c92 -1 124 3 160 18 53 22 56 22 -130
0z"/>
<path d="M8685 7567 c12 -7 69 -12 145 -14 l125 -2 -115 14 c-63 8 -128 14
-145 14 -28 0 -28 -1 -10 -12z"/>
<path d="M18701 7544 c0 -11 3 -14 6 -6 3 7 2 16 -1 19 -3 4 -6 -2 -5 -13z"/>
<path d="M9257 7520 c12 -5 50 -12 85 -16 42 -4 70 -13 86 -27 24 -22 29 -13
8 15 -13 17 -30 21 -153 32 -34 4 -42 2 -26 -4z"/>
<path d="M14535 7463 l-47 -68 54 53 c29 28 62 52 73 52 11 1 31 7 45 15 24
14 23 14 -27 15 l-51 0 -47 -67z"/>
<path d="M18711 7503 c0 -5 9 -51 19 -103 l18 -95 1 68 c1 39 -5 82 -13 102
-14 32 -27 47 -25 28z"/>
<path d="M10705 7392 c38 -51 55 -58 55 -22 0 10 8 21 18 25 9 5 292 8 627 8
336 0 592 1 570 3 -22 2 -299 8 -615 14 -316 6 -601 13 -634 17 l-59 6 38 -51z"/>
<path d="M12980 7429 c-96 -3 -276 -8 -400 -10 -174 -3 -124 -5 218 -9 442 -5
443 -5 460 -27 l17 -22 28 39 28 40 -88 -2 c-48 -1 -167 -5 -263 -9z"/>
<path d="M6247 7280 c-34 -171 -93 -522 -101 -600 l-6 -55 21 50 c15 36 23 82
28 165 5 78 12 123 23 140 10 16 18 58 21 115 3 62 12 105 26 137 17 38 21 63
19 120 l-3 73 -28 -145z"/>
<path d="M14465 7364 c-9 -15 -12 -23 -6 -20 11 7 35 46 28 46 -3 0 -12 -12
-22 -26z"/>
<path d="M14369 7228 c-40 -57 -84 -118 -98 -137 -25 -32 -25 -33 -3 -20 12 8
22 16 22 19 0 6 102 148 125 173 15 17 38 67 31 67 -2 0 -37 -46 -77 -102z"/>
<path d="M18750 7290 c1 -8 12 -80 25 -160 l24 -145 -2 120 c-3 102 -6 126
-25 160 -12 22 -22 33 -22 25z"/>
<path d="M14134 6903 c-421 -575 -877 -1141 -1302 -1617 l-133 -148 23 -25 23
-25 3 48 c3 46 8 53 110 159 59 60 155 166 213 235 59 69 121 141 139 160 18
19 45 52 59 74 14 21 33 48 41 60 13 19 51 62 110 126 21 22 73 91 85 111 6
10 37 47 69 83 33 37 64 74 70 85 27 45 67 100 105 141 23 25 47 52 55 60 7 8
20 29 29 45 9 17 31 47 49 67 53 58 93 110 158 203 14 19 35 47 48 61 12 14
22 29 22 33 0 5 32 48 70 96 59 74 83 115 66 115 -2 0 -52 -66 -112 -147z"/>
<path d="M10980 7036 c0 -2 8 -10 18 -17 15 -13 16 -12 3 4 -13 16 -21 21 -21
13z"/>
<path d="M18801 6955 c0 -5 8 -68 18 -140 l19 -130 0 90 c0 63 -5 105 -18 140
-10 28 -19 46 -19 40z"/>
<path d="M11190 6785 c0 -6 29 -43 102 -129 4 -6 8 -7 8 -4 0 4 -25 37 -55 73
-30 37 -55 64 -55 60z"/>
<path d="M6117 6466 c-10 -81 -16 -150 -14 -153 3 -2 12 15 21 39 13 33 16 70
14 153 l-3 110 -18 -149z"/>
<path d="M10145 6530 c10 -11 20 -20 23 -20 3 0 -3 9 -13 20 -10 11 -20 20
-23 20 -3 0 3 -9 13 -20z"/>
<path d="M10170 6496 c0 -2 8 -10 18 -17 15 -13 16 -12 3 4 -13 16 -21 21 -21
13z"/>
<path d="M18866 6375 c3 -22 9 -89 14 -150 l8 -110 -2 130 c-1 78 -6 138 -13
150 -10 17 -11 14 -7 -20z"/>
<path d="M6092 6245 c0 -16 2 -22 5 -12 2 9 2 23 0 30 -3 6 -5 -1 -5 -18z"/>
<path d="M6076 6078 c-12 -173 -16 -387 -6 -338 11 49 26 430 18 430 -3 0 -8
-42 -12 -92z"/>
<path d="M11785 6080 c10 -11 20 -20 23 -20 3 0 -3 9 -13 20 -10 11 -20 20
-23 20 -3 0 3 -9 13 -20z"/>
<path d="M18892 5935 c0 -16 2 -22 5 -12 2 9 2 23 0 30 -3 6 -5 -1 -5 -18z"/>
<path d="M12002 5844 c9 -9 21 -13 28 -9 14 9 -5 25 -30 25 -12 0 -12 -3 2
-16z"/>
<path d="M18904 5605 c0 -132 2 -185 3 -117 2 68 2 176 0 240 -1 64 -3 9 -3
-123z"/>
<path d="M10850 5675 c13 -14 26 -25 28 -25 3 0 -5 11 -18 25 -13 14 -26 25
-28 25 -3 0 5 -11 18 -25z"/>
<path d="M6053 5645 c0 -27 2 -38 4 -22 2 15 2 37 0 50 -2 12 -4 0 -4 -28z"/>
<path d="M10920 5596 c0 -2 8 -10 18 -17 15 -13 16 -12 3 4 -13 16 -21 21 -21
13z"/>
<path d="M11061 5430 c12 -16 29 -32 38 -35 9 -3 0 10 -18 29 -42 44 -49 46
-20 6z"/>
<path d="M11155 5330 c27 -27 51 -50 54 -50 3 0 -17 23 -44 50 -27 28 -51 50
-54 50 -3 0 17 -22 44 -50z"/>
<path d="M6056 5170 c2 -58 10 -175 17 -260 l12 -155 3 135 c3 119 -5 206 -32
360 -3 14 -3 -22 0 -80z"/>
<path d="M11268 5209 c14 -16 26 -47 30 -74 7 -47 7 -47 26 -27 18 20 18 22
-2 49 -11 15 -33 39 -49 53 l-28 25 23 -26z"/>
<path d="M18877 4945 c-4 -55 -10 -122 -12 -150 l-5 -50 15 40 c12 29 15 69
13 150 l-3 110 -8 -100z"/>
<path d="M6111 4565 c0 -11 6 -51 13 -90 l14 -70 0 60 c1 33 -5 74 -13 90 -10
23 -13 25 -14 10z"/>
<path d="M18822 4480 c-6 -47 -15 -103 -17 -125 l-6 -40 21 49 c16 38 20 66
18 125 l-3 76 -13 -85z"/>
<path d="M11889 4314 c-582 -548 -1299 -1099 -1871 -1439 -54 -31 -98 -59 -98
-61 0 -12 33 0 58 21 17 14 40 25 53 25 12 0 33 10 45 21 24 23 34 29 103 67
22 12 41 27 41 32 0 6 10 15 23 20 12 6 40 23 63 38 22 15 57 38 77 50 20 13
37 28 37 32 0 4 14 13 32 19 17 6 39 18 47 26 30 29 94 75 103 75 6 0 32 18
59 41 52 43 116 89 125 89 3 0 29 19 57 43 29 24 77 60 107 80 30 21 82 63
115 93 33 31 73 62 88 70 33 18 48 30 130 107 34 32 81 72 105 90 132 98 210
166 412 361 131 126 170 151 241 151 l58 0 -36 38 c-21 20 -38 37 -38 37 -1 0
-62 -57 -136 -126z"/>
<path d="M18782 4245 c-7 -38 -16 -81 -19 -95 -6 -22 -4 -23 10 -12 18 16 30
78 25 137 -3 37 -4 35 -16 -30z"/>
<path d="M6160 4290 c0 -8 7 -37 15 -65 l15 -50 -5 54 c-2 30 -9 59 -15 65 -7
7 -10 5 -10 -4z"/>
<path d="M12280 4196 c0 -2 8 -10 18 -17 15 -13 16 -12 3 4 -13 16 -21 21 -21
13z"/>
<path d="M6200 4119 c0 -2 7 -24 14 -49 l15 -45 0 36 c1 21 -5 42 -14 49 -8 7
-15 11 -15 9z"/>
<path d="M12380 4103 c0 -5 19 -23 43 -42 l42 -34 -40 41 c-41 44 -45 47 -45
35z"/>
<path d="M18729 4009 c-10 -41 -16 -75 -14 -77 9 -10 36 75 33 110 -3 39 -4
37 -19 -33z"/>
<path d="M12510 3985 c19 -19 36 -35 39 -35 3 0 -10 16 -29 35 -19 19 -36 35
-39 35 -3 0 10 -16 29 -35z"/>
<path d="M6251 3954 c0 -5 7 -25 14 -44 12 -31 14 -32 14 -10 0 14 -6 34 -14
44 -8 11 -15 16 -14 10z"/>
<path d="M12560 3947 c0 -2 15 -16 33 -33 l32 -29 -29 33 c-28 30 -36 37 -36
29z"/>
<path d="M18701 3904 c0 -11 3 -14 6 -6 3 7 2 16 -1 19 -3 4 -6 -2 -5 -13z"/>
<path d="M12655 3860 c10 -11 20 -20 23 -20 3 0 -3 9 -13 20 -10 11 -20 20
-23 20 -3 0 3 -9 13 -20z"/>
<path d="M18692 3869 c-4 -32 -103 -322 -148 -432 -70 -170 -175 -371 -267
-510 -45 -68 -77 -123 -71 -120 7 2 27 29 46 60 18 30 52 79 76 108 23 30 42
60 42 69 0 8 11 28 25 44 14 17 25 39 25 50 0 11 11 34 25 50 14 17 25 39 25
49 0 11 9 28 19 37 10 10 22 34 26 54 4 20 13 45 22 54 8 9 19 36 24 59 5 23
19 53 29 67 11 13 20 38 20 54 0 17 9 41 19 55 11 13 23 45 27 71 3 26 15 61
26 79 13 23 18 45 15 75 -2 24 -4 36 -5 27z"/>
<path d="M12706 3816 c3 -8 13 -17 22 -21 13 -5 13 -2 -3 15 -21 24 -26 25
-19 6z"/>
<path d="M6308 3795 c5 -11 12 -27 15 -35 5 -13 6 -13 6 1 1 8 -6 24 -15 35
-15 19 -15 19 -6 -1z"/>
<path d="M12754 3771 c4 -6 16 -16 28 -22 15 -8 18 -8 14 0 -4 6 -16 16 -28
22 -15 8 -18 8 -14 0z"/>
<path d="M6400 3595 c0 -5 5 -17 10 -25 5 -8 10 -10 10 -5 0 6 -5 17 -10 25
-5 8 -10 11 -10 5z"/>
<path d="M12990 3586 c0 -2 8 -10 18 -17 15 -13 16 -12 3 4 -13 16 -21 21 -21
13z"/>
<path d="M13030 3556 c0 -2 8 -10 18 -17 15 -13 16 -12 3 4 -13 16 -21 21 -21
13z"/>
<path d="M13170 3446 c0 -2 8 -10 18 -17 15 -13 16 -12 3 4 -13 16 -21 21 -21
13z"/>
<path d="M13245 3385 c22 -20 48 -41 58 -46 34 -19 16 -1 -40 40 -57 41 -57
41 -18 6z"/>
<path d="M13339 3316 c13 -16 51 -41 51 -33 0 2 -15 14 -32 27 -21 15 -28 17
-19 6z"/>
<path d="M13404 3272 c8 -13 66 -56 66 -49 0 3 -17 17 -37 33 -20 15 -33 23
-29 16z"/>
<path d="M6685 3210 c10 -11 20 -20 23 -20 3 0 -3 9 -13 20 -10 11 -20 20 -23
20 -3 0 3 -9 13 -20z"/>
<path d="M13484 3211 c7 -11 46 -35 46 -28 0 3 -12 12 -26 22 -15 9 -23 12
-20 6z"/>
<path d="M13557 3159 c12 -12 24 -21 27 -18 2 2 -8 13 -22 23 l-27 19 22 -24z"/>
<path d="M13690 3066 c0 -2 7 -7 16 -10 8 -3 12 -2 9 4 -6 10 -25 14 -25 6z"/>
<path d="M7728 2993 c7 -3 16 -2 19 1 4 3 -2 6 -13 5 -11 0 -14 -3 -6 -6z"/>
<path d="M13824 2981 c7 -11 46 -35 46 -28 0 3 -12 12 -26 22 -15 9 -23 12
-20 6z"/>
<path d="M13912 2924 c10 -10 20 -16 22 -13 3 3 -5 11 -17 18 -21 13 -21 12
-5 -5z"/>
<path d="M9790 2744 c-148 -84 -514 -268 -655 -329 -241 -104 -471 -188 -718
-261 l-152 -44 72 3 c49 2 77 8 90 19 10 9 43 20 73 23 30 4 66 15 80 24 14
10 45 21 69 25 24 4 55 16 69 26 13 11 36 20 49 20 13 0 45 11 71 25 26 14 61
25 78 25 17 0 37 7 44 15 7 8 31 20 53 26 23 6 52 19 65 30 14 10 32 19 41 19
9 0 33 11 53 25 20 14 48 25 61 25 13 0 32 8 41 19 9 10 34 21 54 25 20 3 45
15 54 26 10 11 28 20 41 20 13 0 32 9 41 19 10 11 32 23 50 27 17 3 40 14 51
24 11 10 31 21 45 25 14 4 34 15 45 25 11 10 35 21 53 25 18 4 36 13 39 21 2
7 14 16 26 20 26 8 124 70 132 84 9 14 12 16 -115 -56z"/>
<path d="M18146 2743 c-120 -155 -301 -322 -461 -428 -88 -57 -256 -145 -350
-181 l-60 -23 46 -1 c33 0 51 5 63 19 10 11 35 22 56 26 21 4 46 15 56 26 9
10 25 19 36 19 10 0 27 9 37 19 10 10 49 35 85 56 36 20 66 40 66 45 0 4 25
23 55 41 60 37 79 52 170 138 110 104 254 275 243 286 -3 3 -22 -16 -42 -42z"/>
<path d="M14222 2734 c10 -10 20 -15 24 -12 3 4 -5 12 -18 18 -22 12 -22 12
-6 -6z"/>
<path d="M14304 2685 c11 -8 24 -15 30 -15 5 0 1 7 -10 15 -10 8 -23 14 -29
14 -5 0 -1 -6 9 -14z"/>
<path d="M14397 2639 c7 -7 15 -10 18 -7 3 3 -2 9 -12 12 -14 6 -15 5 -6 -5z"/>
<path d="M14877 2399 c7 -7 15 -10 18 -7 3 3 -2 9 -12 12 -14 6 -15 5 -6 -5z"/>
<path d="M14967 2359 c7 -7 15 -10 18 -7 3 3 -2 9 -12 12 -14 6 -15 5 -6 -5z"/>
<path d="M15197 2269 c7 -7 15 -10 18 -7 3 3 -2 9 -12 12 -14 6 -15 5 -6 -5z"/>
<path d="M15301 2224 c6 -8 17 -14 23 -14 7 0 34 -11 62 -24 27 -13 76 -26
109 -29 33 -3 56 -3 50 -1 -131 45 -254 79 -244 68z"/>
<path d="M6434 2216 c11 -9 24 -16 30 -16 12 0 7 5 -24 19 -24 11 -24 11 -6
-3z"/>
<path d="M6528 2168 c5 -5 16 -8 23 -6 8 3 3 7 -10 11 -17 4 -21 3 -13 -5z"/>
<path d="M6644 2126 c11 -9 27 -16 35 -15 14 0 14 1 1 6 -8 3 -24 10 -35 15
-20 9 -20 9 -1 -6z"/>
<path d="M15606 2130 c6 -6 28 -13 50 -16 43 -5 24 7 -31 20 -22 5 -27 4 -19
-4z"/>
<path d="M8110 2080 c-66 -16 -70 -18 -35 -19 46 -1 111 15 120 29 7 12 10 12
-85 -10z"/>
<path d="M17165 2080 c-51 -16 -55 -19 -27 -19 32 -1 102 22 102 33 0 8 -4 7
-75 -14z"/>
<path d="M15806 2080 c5 -5 32 -12 59 -15 l50 -5 -55 15 c-67 17 -66 17 -54 5z"/>
<path d="M6808 2073 c7 -3 16 -2 19 1 4 3 -2 6 -13 5 -11 0 -14 -3 -6 -6z"/>
<path d="M6848 2063 c7 -3 16 -2 19 1 4 3 -2 6 -13 5 -11 0 -14 -3 -6 -6z"/>
<path d="M7855 2034 l-80 -13 82 2 c50 1 87 7 95 15 14 14 15 14 -97 -4z"/>
<path d="M16020 2036 c14 -7 68 -16 120 -19 l95 -6 -92 13 c-50 8 -104 16
-120 20 l-28 6 25 -14z"/>
<path d="M16975 2034 l-60 -13 63 3 c34 1 68 8 74 14 15 15 4 15 -77 -4z"/>
<path d="M6990 2030 c13 -9 109 -15 99 -6 -2 2 -29 6 -59 10 -38 4 -50 3 -40
-4z"/>
<path d="M7143 2013 c9 -2 23 -2 30 0 6 3 -1 5 -18 5 -16 0 -22 -2 -12 -5z"/>
<path d="M7693 2013 c9 -2 23 -2 30 0 6 3 -1 5 -18 5 -16 0 -22 -2 -12 -5z"/>
<path d="M16848 2013 c6 -2 18 -2 25 0 6 3 1 5 -13 5 -14 0 -19 -2 -12 -5z"/>
<path d="M7345 1991 c78 -12 102 -12 170 0 l80 15 -170 -1 -170 0 90 -14z"/>
<path d="M16288 1990 c54 -21 424 -21 468 0 28 14 8 15 -237 15 -245 0 -265
-1 -231 -15z"/>
</g>
</svg>
