<?xml version="1.0" standalone="no"?>
<!DOCTYPE svg PUBLIC "-//W3C//DTD SVG 20010904//EN"
 "http://www.w3.org/TR/2001/REC-SVG-20010904/DTD/svg10.dtd">
<svg version="1.0" xmlns="http://www.w3.org/2000/svg"
 width="860.000000pt" height="567.000000pt" viewBox="0 0 860.000000 567.000000"
 preserveAspectRatio="xMidYMid meet">

<g transform="translate(0.000000,567.000000) scale(0.100000,-0.100000)"
fill="#000000" stroke="none">
<path d="M5379 5249 c-280 -28 -657 -244 -991 -567 l-77 -74 -113 102 c-260
235 -513 398 -740 478 -352 124 -577 60 -702 -201 -79 -164 -101 -304 -93
-587 5 -204 31 -386 81 -588 16 -64 20 -95 12 -97 -117 -33 -364 -117 -445
-152 -386 -164 -655 -392 -722 -615 -86 -281 158 -590 651 -827 137 -65 335
-141 463 -176 31 -9 57 -21 57 -27 0 -5 -9 -44 -19 -86 -56 -221 -82 -424 -82
-645 -1 -546 201 -816 581 -776 289 31 635 224 998 556 l78 72 100 -91 c346
-317 669 -501 942 -538 338 -45 541 167 593 620 14 127 6 402 -16 543 -14 90
-58 309 -70 348 -4 13 25 26 152 68 325 109 567 234 761 395 212 176 300 379
244 563 -84 274 -454 538 -1002 714 -91 29 -167 54 -169 55 -2 2 6 41 17 86
71 287 99 630 72 858 -34 277 -139 474 -295 551 -70 34 -164 48 -266 38z m224
-123 c252 -123 323 -622 181 -1266 -15 -63 -27 -116 -28 -117 -1 -1 -89 15
-195 37 -174 35 -549 90 -619 90 -23 0 -39 17 -108 113 -103 143 -239 311
-357 444 -50 57 -93 108 -95 112 -4 11 189 185 303 274 228 177 459 298 646
337 24 5 83 8 130 6 70 -2 96 -7 142 -30z m-2218 -10 c241 -82 548 -282 787
-513 l68 -65 -97 -106 c-111 -123 -302 -360 -385 -477 l-56 -81 -122 -12
c-227 -24 -639 -93 -704 -118 -17 -6 -20 3 -52 139 -126 548 -84 1020 108
1192 72 64 110 75 253 71 98 -3 135 -8 200 -30z m1088 -830 c100 -116 307
-383 307 -395 0 -3 -53 -3 -117 1 -65 3 -226 6 -358 6 -132 0 -293 -3 -358 -6
-64 -4 -117 -5 -117 -3 0 18 242 320 383 478 l91 103 34 -33 c19 -17 79 -85
135 -151z m87 -486 c146 -6 273 -13 283 -16 42 -13 336 -494 501 -821 l67
-132 -80 -158 c-103 -202 -233 -430 -363 -636 l-103 -162 -70 -8 c-92 -12
-846 -14 -955 -4 l-85 8 -96 147 c-128 194 -251 406 -365 628 l-94 180 39 80
c153 318 487 868 533 879 19 5 145 11 483 23 22 1 159 -3 305 -8z m-978 -102
c-109 -163 -303 -497 -388 -670 -21 -43 -41 -78 -44 -78 -18 0 -260 640 -260
685 0 16 28 24 180 55 124 26 469 78 523 79 l38 1 -49 -72z m1668 40 c138 -19
468 -83 476 -91 12 -12 -148 -451 -229 -628 l-33 -74 -89 165 c-100 186 -254
449 -327 558 -27 39 -51 79 -55 88 -7 19 2 18 257 -18z m-2393 -306 c33 -103
94 -263 133 -357 40 -93 79 -188 88 -210 l15 -40 -70 -165 c-83 -193 -158
-393 -202 -537 -18 -57 -33 -103 -35 -103 -18 0 -236 71 -326 107 -443 174
-740 419 -789 650 -35 168 98 364 368 538 122 79 350 183 538 245 98 33 187
59 198 59 17 0 29 -27 82 -187z m3163 131 c345 -115 588 -249 756 -417 101
-102 137 -157 160 -245 19 -77 8 -147 -38 -234 -45 -85 -187 -226 -313 -310
-168 -111 -466 -244 -681 -305 l-70 -19 -39 116 c-50 153 -132 363 -212 539
l-64 143 80 187 c86 200 133 323 188 495 l34 108 32 -7 c18 -4 93 -27 167 -51z
m-467 -1043 c87 -203 191 -500 180 -511 -22 -22 -725 -139 -741 -124 -2 2 40
74 93 160 121 196 215 361 307 538 45 87 74 133 79 125 4 -7 41 -92 82 -188z
m-2138 -290 c54 -91 125 -205 157 -253 33 -49 57 -91 55 -94 -13 -12 -523 61
-687 100 -46 11 -54 16 -52 32 13 75 188 547 244 659 l20 39 82 -159 c46 -87
127 -233 181 -324z m2359 -337 c15 -50 57 -261 70 -358 35 -260 29 -481 -18
-666 -43 -169 -117 -283 -221 -337 -46 -25 -59 -27 -170 -27 -108 1 -129 4
-212 32 -184 64 -377 176 -568 330 -119 96 -265 231 -265 244 0 6 37 52 83
102 105 117 218 258 336 423 52 71 97 132 100 137 4 4 88 16 187 27 187 21
412 58 549 89 105 24 122 25 129 4z m-2754 -22 c160 -33 368 -63 560 -82 l125
-12 112 -151 c129 -173 218 -282 339 -413 46 -50 84 -96 84 -101 0 -6 -36 -44
-81 -86 -245 -230 -508 -399 -758 -484 -97 -33 -116 -36 -221 -36 -100 -1
-122 2 -168 23 -259 117 -334 624 -185 1259 15 61 31 112 37 112 6 0 76 -13
156 -29z m1761 -116 c-4 -5 -48 -64 -97 -130 -88 -119 -240 -306 -325 -399
l-44 -48 -75 83 c-144 160 -308 361 -387 474 l-21 30 478 0 c317 0 476 -3 471
-10z"/>
<path d="M4164 3311 c-83 -24 -148 -64 -214 -131 -96 -98 -140 -208 -140 -351
0 -272 218 -490 490 -490 147 0 272 53 366 153 92 101 134 207 134 344 0 185
-98 350 -261 438 -102 56 -256 71 -375 37z m217 -81 c210 -40 357 -249 322
-457 -24 -137 -107 -248 -231 -306 -61 -29 -75 -32 -167 -32 -93 0 -105 2
-168 33 -206 102 -292 339 -195 540 29 63 116 153 175 182 90 45 171 57 264
40z"/>
</g>
</svg>
